<svg width="74" height="29" viewBox="0 0 74 29" fill="none" xmlns="http://www.w3.org/2000/svg">
<rect width="74.0003" height="28.6667" rx="4" fill="#FF6F3F"/>
<circle cx="18.6668" cy="14.3333" r="7.83333" stroke="white"/>
<path d="M22.2779 17.8122V16.9441C22.2779 16.4837 22.095 16.0421 21.7694 15.7165C21.4439 15.3909 21.0023 15.208 20.5418 15.208H17.0696C16.6092 15.208 16.1676 15.3909 15.842 15.7165C15.5164 16.0421 15.3335 16.4837 15.3335 16.9441V17.8122" stroke="white" stroke-linecap="round" stroke-linejoin="round"/>
<path d="M18.8059 13.4722C19.7648 13.4722 20.542 12.6949 20.542 11.7361C20.542 10.7773 19.7648 10 18.8059 10C17.8471 10 17.0698 10.7773 17.0698 11.7361C17.0698 12.6949 17.8471 13.4722 18.8059 13.4722Z" stroke="white" stroke-linecap="round" stroke-linejoin="round"/>
<path d="M33.1965 17.265H36.1245V18.333H31.8285V9.86101H33.1965V17.265ZM40.2197 11.637C40.8597 11.637 41.4357 11.773 41.9477 12.045C42.4597 12.317 42.8597 12.709 43.1477 13.221C43.4357 13.733 43.5797 14.333 43.5797 15.021C43.5797 15.717 43.4357 16.321 43.1477 16.833C42.8597 17.345 42.4597 17.737 41.9477 18.009C41.4357 18.281 40.8597 18.417 40.2197 18.417C39.5797 18.417 39.0037 18.281 38.4917 18.009C37.9877 17.737 37.5877 17.345 37.2917 16.833C37.0037 16.313 36.8597 15.709 36.8597 15.021C36.8597 14.333 37.0037 13.733 37.2917 13.221C37.5877 12.709 37.9877 12.317 38.4917 12.045C39.0037 11.773 39.5797 11.637 40.2197 11.637ZM40.2197 12.825C39.8677 12.825 39.5437 12.905 39.2477 13.065C38.9517 13.225 38.7117 13.473 38.5277 13.809C38.3517 14.137 38.2637 14.541 38.2637 15.021C38.2637 15.509 38.3517 15.917 38.5277 16.245C38.7117 16.573 38.9517 16.817 39.2477 16.977C39.5437 17.137 39.8677 17.217 40.2197 17.217C40.5717 17.217 40.8957 17.137 41.1917 16.977C41.4877 16.817 41.7237 16.573 41.8997 16.245C42.0837 15.917 42.1757 15.509 42.1757 15.021C42.1757 14.541 42.0837 14.137 41.8997 13.809C41.7237 13.473 41.4877 13.225 41.1917 13.065C40.8957 12.905 40.5717 12.825 40.2197 12.825ZM47.5469 11.637C48.1469 11.637 48.6589 11.785 49.0829 12.081C49.5069 12.377 49.8069 12.769 49.9829 13.257V11.721H51.3509V18.405C51.3509 19.021 51.2229 19.565 50.9669 20.037C50.7189 20.517 50.3589 20.893 49.8869 21.165C49.4149 21.437 48.8549 21.573 48.2069 21.573C47.2789 21.573 46.5269 21.353 45.9509 20.913C45.3829 20.473 45.0269 19.877 44.8829 19.125H46.2389C46.3509 19.517 46.5669 19.821 46.8869 20.037C47.2069 20.261 47.6149 20.373 48.1109 20.373C48.6549 20.373 49.1029 20.205 49.4549 19.869C49.8069 19.533 49.9829 19.045 49.9829 18.405V16.797C49.8069 17.285 49.5069 17.677 49.0829 17.973C48.6589 18.269 48.1469 18.417 47.5469 18.417C46.9709 18.417 46.4549 18.281 45.9989 18.009C45.5509 17.737 45.1989 17.345 44.9429 16.833C44.6869 16.321 44.5589 15.717 44.5589 15.021C44.5589 14.333 44.6869 13.733 44.9429 13.221C45.1989 12.709 45.5509 12.317 45.9989 12.045C46.4549 11.773 46.9709 11.637 47.5469 11.637ZM47.9669 12.837C47.3589 12.837 46.8709 13.033 46.5029 13.425C46.1429 13.809 45.9629 14.341 45.9629 15.021C45.9629 15.701 46.1429 16.237 46.5029 16.629C46.8709 17.013 47.3589 17.205 47.9669 17.205C48.3509 17.205 48.6949 17.117 48.9989 16.941C49.3029 16.757 49.5429 16.501 49.7189 16.173C49.8949 15.845 49.9829 15.461 49.9829 15.021C49.9829 14.589 49.8949 14.209 49.7189 13.881C49.5429 13.545 49.3029 13.289 48.9989 13.113C48.6949 12.929 48.3509 12.837 47.9669 12.837ZM52.8006 9.80101C52.8006 9.56901 52.8806 9.37701 53.0406 9.22501C53.2006 9.07301 53.4126 8.99701 53.6766 8.99701C53.9406 8.99701 54.1526 9.07301 54.3126 9.22501C54.4806 9.37701 54.5646 9.56901 54.5646 9.80101C54.5646 10.033 54.4806 10.221 54.3126 10.365C54.1526 10.509 53.9406 10.581 53.6766 10.581C53.4126 10.581 53.2006 10.509 53.0406 10.365C52.8806 10.221 52.8006 10.033 52.8006 9.80101ZM54.3606 11.721V18.333H52.9926V11.721H54.3606ZM59.712 11.613C60.48 11.613 61.096 11.861 61.56 12.357C62.024 12.853 62.256 13.561 62.256 14.481V18.333H60.888V14.625C60.888 14.033 60.736 13.577 60.432 13.257C60.128 12.929 59.712 12.765 59.184 12.765C58.64 12.765 58.204 12.941 57.876 13.293C57.548 13.637 57.384 14.145 57.384 14.817V18.333H56.016V11.721H57.384V13.173C57.56 12.677 57.856 12.293 58.272 12.021C58.688 11.749 59.168 11.613 59.712 11.613Z" fill="white"/>
</svg>
