<svg width="16" height="16" viewBox="0 0 16 16" fill="none" xmlns="http://www.w3.org/2000/svg">
<path d="M11.9995 5.33301C11.9995 4.27214 11.5781 3.25473 10.8279 2.50458C10.0778 1.75444 9.06038 1.33301 7.99951 1.33301C6.93865 1.33301 5.92123 1.75444 5.17108 2.50458C4.42094 3.25473 3.99951 4.27214 3.99951 5.33301C3.99951 9.99967 1.99951 11.333 1.99951 11.333H13.9995C13.9995 11.333 11.9995 9.99967 11.9995 5.33301Z" fill="#FF6F3F" stroke="#FF6F3F" stroke-width="1.2" stroke-linecap="round" stroke-linejoin="round"/>
<path d="M9.15286 14C9.03565 14.2021 8.86742 14.3698 8.66501 14.4864C8.4626 14.6029 8.23311 14.6643 7.99952 14.6643C7.76594 14.6643 7.53645 14.6029 7.33404 14.4864C7.13163 14.3698 6.9634 14.2021 6.84619 14" stroke="#FF6F3F" stroke-width="1.2" stroke-linecap="round" stroke-linejoin="round"/>
</svg>
